{"asset":{"copyright":"","generator":"Aspose GLTF","version":"2.0"},"extensionsUsed":["KHR_materials_unlit"],"accessors":[{"name":"POSITION","bufferView":0,"componentType":5126,"count":68254,"max":[128.23196411132812,91.32977294921875,76.84565734863281],"min":[-64.55670166015625,-34.99943542480469,-76.84565734863281],"type":"VEC3"},{"bufferView":1,"componentType":5125,"count":272894,"type":"SCALAR"}],"bufferViews":[{"buffer":0,"byteLength":819048,"byteOffset":1091576,"byteStride":12,"target":34962},{"buffer":0,"byteLength":1091576,"target":34963}],"buffers":[{"byteLength":1910624,"uri":"model.bin"}],"materials":[{"extensions":{"KHR_materials_unlit":{}},"name":"material1","pbrMetallicRoughness":{}}],"meshes":[{"name":"mesh","primitives":[{"attributes":{"POSITION":0},"indices":1,"material":0,"mode":1}]}],"nodes":[{"mesh":0}],"scenes":[{"name":"Default","nodes":[0]}]}